<mxfile host="Electron" modified="2024-02-16T07:22:08.492Z" agent="Mozilla/5.0 (Windows NT 10.0; Win64; x64) AppleWebKit/537.36 (KHTML, like Gecko) draw.io/21.2.8 Chrome/112.0.5615.165 Electron/24.2.0 Safari/537.36" etag="KVMT5GfkXNduQkbWbKN1" version="21.2.8" type="device">
  <diagram name="Page-1" id="2XWkQP5S-hDbL94sL5Vg">
    <mxGraphModel dx="2058" dy="1180" grid="1" gridSize="10" guides="1" tooltips="1" connect="1" arrows="1" fold="1" page="1" pageScale="1" pageWidth="3300" pageHeight="4681" background="#999999" math="0" shadow="0">
      <root>
        <mxCell id="0" />
        <mxCell id="1" parent="0" />
        <mxCell id="APLwThIm-aDqV8bCMrbt-1" value="Behavior" style="rounded=0;whiteSpace=wrap;html=1;fontSize=25;fillColor=#dae8fc;strokeColor=#6c8ebf;" parent="1" vertex="1">
          <mxGeometry x="1298" y="140" width="650" height="60" as="geometry" />
        </mxCell>
        <mxCell id="gRgrTdZc8dC36sFJLmP3-1" value="" style="whiteSpace=wrap;html=1;aspect=fixed;fillColor=#f8cecc;strokeColor=#b85450;" parent="1" vertex="1">
          <mxGeometry x="1298" y="390" width="80" height="80" as="geometry" />
        </mxCell>
        <mxCell id="gRgrTdZc8dC36sFJLmP3-2" value="" style="whiteSpace=wrap;html=1;aspect=fixed;fillColor=#f8cecc;strokeColor=#b85450;" parent="1" vertex="1">
          <mxGeometry x="1868" y="400" width="80" height="80" as="geometry" />
        </mxCell>
        <mxCell id="gRgrTdZc8dC36sFJLmP3-3" value="" style="endArrow=classic;html=1;rounded=0;strokeWidth=4;" parent="1" edge="1">
          <mxGeometry width="50" height="50" relative="1" as="geometry">
            <mxPoint x="1420" y="440" as="sourcePoint" />
            <mxPoint x="1840" y="440" as="targetPoint" />
          </mxGeometry>
        </mxCell>
        <mxCell id="7mpCbZmv2K605DWUYqKL-1" value="" style="shape=image;verticalLabelPosition=bottom;labelBackgroundColor=default;verticalAlign=top;aspect=fixed;imageAspect=0;image=data:image/png,iVBORw0KGgoAAAANSUhEUgAAApkAAAH7CAYAAACHe4SeAAAAAXNSR0IArs4c6QAAAARnQU1BAACxjwv8YQUAAAAJcEhZcwAADsMAAA7DAcdvqGQAAFdDSURBVHhe7d0LcFR1nvf/bxJcJ8mukpsmgSSNYgI8xTWjMpMilDy6U8qwpGYeqLBbZeGUbGlqF/g7YxVMaTmW/geqHP0z7D7RWtyB8l+7pGBnK1kGrRl9tIAnI4wmiOyfS2QkJJIwkgu6Q6LPQPL//c75nc7pa5LOSae7835VdfU5v+7T59LR/vC7nbRFi5cMSxIoLfVJR0e7WQMAAEAiSzfPAAAAgGcImQAAAPAcIRMAAACeI2QCAADAc4RMAAAAeI6QCQAAAM8RMgEAAOA5QiYAAAA8R8gEAACA5wiZAAAA8BwhEwAAAJ4jZAIAAMBzhEwAAAB4jpAJAAAAzxEyAQAA4DlCJgAAADxHyAQAAIDnCJkAAADwHCETAAAAniNkAgAAwHOETAAAAHiOkAkAAADPETIBAADgOUImAAAAPEfIBAAAgOfSFi1eMmyWE1ppqU86OtrNGjBJ7kiXxY+mS6ZZ9esbko9/MSQDZjUx5Uv1unulZtkcKS4yRXJR6je+JUfNGgAA8ULITCD5NTNk7lyzEmSwb1gGjw/JZ2eGEyjopEnJDzJkliRDABujJA6Z1VvqpG6pWfEjZAIApgYhM4FEC5l+CRV2UjBkhkiT8h9lSG7Ch8x82bBjvawtEmnZc0Beau4x5QAATA36ZCagvjdvyPGfuR835eM3h2RQv5ibLvesSLPeB4TobpWDBEwAQAIgZCaFYRk4MySn3rQrnTPzrKeEkJlrFgAAAFxoLk8gTnO5rslsO2MK3Zz+gpGabu9Ik5Jvp0vu3DR/n0Ldl/Pyr25Kz+emIKw0yVqQLvcs16HRqSUdlsELQ/JJY1Af0AUZsni5+vyxhMsLN+W42j5EhOPsOz4knWeC3x/cJJ+mrlO6zHJvax1n5KbsLHXM94xyzIMnbsqpY+H+U4ihuTzm72FirD6Zha2ybftxYYgcAGCqUZOZRLIqTGhRgSU47GStyJDlj6ow5go2mg6Ncx+dIYsjNbGrQFSuQtyiR3QIc79Hrc9V5SpgldxhiozYay9V+KqJfJyzHsmQ8gWmIJh6Pcsc69zgbeemy6IfpEuWWXfLV/uzz80UTLKYvwevFOVIqVkEAGAqUZOZQCLXZKZJ/op0mXW/HVxCXl+ggo0KUrr2se/EkHx2bCSEWrV4OmSp1y6/cVM6A2rSTC2dXtQ1bQE1iSP7HIxUs+psP9ZaPnOcdq3ekPR8HrivuWpf+hwu/OymjPQqNDWZ/pCotn1z5Dj1+ekQqUW7LoHbpKtrokeQB+8rnHGcY8zfgzfs0eWMJgcAJAZqMhNQ7iMzZPmP3I8MK4DpgDl44WZIAC1Z7oQs9Zor2GgDZ26avpxpklthv8+RpYKdHTB1gFLBJ6Cpelh6jqltVSAKHzBjoI7l4zduyCm1r5GAqdn7unDBXssMqjn1U+FUh0L3cerz82+XF3R+pu+qvi6B2zj9W9U1iVRzOm6xfw8Tly++dQ9LjZ6+qLtfOuxCAACmFCEzSQyqIHhBBb5TwX0c71ChRSdF9fpnkcKgClV96inznjRXk3Ka5Kl1q5bvV1Fq6ALC4MQNODV46rjzF6RLeU2GLP5BhhWm7embVJjOt94RRB9n+FrHgd7YjzE4mMYs5u9hAsqWyyv76qRh33rZuXqOFHdflKbX6I8JAEgMhMwE5J7C6OMTdoDK7BsOqv0z8u0aTj210aKA2k/3wzSJB3H6KQ5O4mCUYLqpuvwH6pgezZC5j5jBMQF9Qb0z0Gs/5z6SIfnu2lHdt9M0sQ9OIKAGmMD34JUu9bhsLwIAMOUImQlu4Jhd+yVz00MG4CQdq/+kCpZWjZ/ut3jTqp39WD10oHaavT3jb0q3B934w54KuFbYu3Azcq1jMrh0XJ7aWC+1Gw9I/eF+KS6aI3VPLBefeRkAgKlEyEx4w/KZVZuZJrO+G2YEdc+wPUm7ni7IP3l7hEeEgSsR+0COlR75bRYjc2oP9SAcday/sPst6trZAY+b5APZn21dIz874H4cPD3TRHjwPcSuR44e3C/1J9Uio8sBAAmCkJkEdG3mZV2dmZsus4MHqqiA1qdfG3dNp9rO1PKFDa+OO8bWf3DMQbVvWHoDBhg5THOzlxbo6Y5ELuvBRgFBL3RgzqhGC9Ixfw8AAKQmQmZSGJbO43Ywy10eHAid11RYfDRDyleoMBQQcvT0QBmy+EcZEjyepue3I7eqXPSDDClZ4O4bqT5HhbTF6jMX1UTqMxkYVIP7PeYHfJ5hbos5cg5mP3qaotHu2z5O9uhyFV4nOJp70OqvoM7Rfdz6/AKuc+zfAwAAqYh5MhNI9Dv+jMwXGe7uNHoS8EXWPJMRWHNThpmf0bmLkFkNNcq8jlG3D5yHMuox6umJPhFrqqbA83fOO/JxOJ8bcl1GPTcdIFVQDnunoRERjzvMHY1i/h4mLF827Fgva4U7/gAAEgM1mUljpDYz8/70kNqwgWMq8KgQdvmC6Rvo0CFK9z/U82CGCzafD8kpFQQvnFDbWTV2Dn1bSbWdnpcyWiDS26v99qn9uFkTrr85FDDlkD7Gj98M2o/1PruPZo8ZDe6Zz9Vnq+sRzah3GlKs49bXx6xb9HG3mWWXmL8HAABSDDWZSFGmBtR/z/Nw0qzbTura48j3Lk8W1GQCABILNZlITWZy9MFPog3wUa95NU9moihaJuuq6PUJAJh6hEykNN21oHyBe6CRLUuF0JIap//ksFxO6lpMrUfeb+23lio3rZcG605A+vGwVFulAADEF83lSFnOQKqodN/KSRmIMzX0Pcw3L5sjxUWmQC5K/ca35KhZAwAgXgiZSGn6Npazl9u3rnSPMndGles5O72dGB0AAGiETAAAAHiOPpkAAADwHCEzQeiaWgAAgFRByAQAAIDnCJkAAADwHCETAAAAniNkAgAAwHOETAAAAHiOkAkAAADPETIxhQpl67Jn5VTVs9JUutCUjZfzGXWyNdsUIeFVbHlZ/m7fv8rfbFlhSpJH/jr72B+pMgWYEK4nkLoImZg62QvkAXOvR1/JfFljLyLO7B/5H0qFWZ90ZbXyzaX2zdVzCmdJvrWULHxyzzJ97N3S/5ldYlHn9DcqKOmwFPz4mx0/lG9VJd48uOP73lfII2HOLeQx7n80RLieAFICIRNT5/oZeW/QXmzvPCuH7EXElfmR774svaZk0l06Lp9264Vu+bT1uPRYhcmiRHKsTPSBfHLJLrHMniU5ZjFYTlGlVG76qfzNukQKmuP83qvuk7vMYjT9XZ1maawiXE8AKYGQiSl0RXa1viCLm1+QtR2nTRniy/zIX7kcx7DXLu9v/2v5x40/lDcPtpuyJFFmwmTQ9covLraeP92jz8v1eO7H8vZhK1FLzurvx6+2eFTj/N6bXw44rwZzTsHn+y/j/T4jXE8AqYGQiemhbLk8vaNOGvbVySvrkquBdlKZGqpPPzxmryM6U2MZXGOXV2xVx4U2+V5ql/MH/0FarExWLLllVunUm+D3HvF8xyvC9QSQGtIWLV4ybJYTmr63d0dHktV6jEOqn589QGeTPGb6YAZr79wjazuumLVwCmV+QbXsLKkQn/mM9t5meb3zXZGSZ+XFvF7Z+1G97Lpuvxasekud1C01K9IvTc/tl/2T2DyXX7ZC7qmpkbuWFvmbUftP/of8+ucNkWtsynxSUfP3Vn9FZxvpbpGWX/1S3m8O97fhk2/t+KlUXnlV/vHnOiyo7dd9X765utK1z1fVPo+59rlCHtmhjqtIh4TRtMjbG1+W82ZthNrPlsDj1Of2YWODnJ/9Q/m7TcXS8twP5X3n+lbpskqz4tL9H9KwPcr1iOn8AuWrfX/nu+r9/tPtlk8PN8rvDkbeJtr59d73stSuLrJq8N5sNi86x1kU6XrpgU7/Kg8t7Q68Li6xHed4/s68+N4dun/mkyqkjvY+x3ivJ4BUQU0mkoAdUBvKRwKm5surkheX1MnjWaYgIegfVPXD+fyTUukOi0rO0r+S2n0vy7fC1GbpkPE3z/9UBZHAbSRaf76y5So0qB9sXQtkDTxR27sCmJaz9En5jntb3Tw5pqChhOuv5+wnzLk99PzL8sg3dZjskj5XkHKakoP1j9YfM5bz89Oh6l+lVoXbkeCmFcldq5+U2h214QccRT2/H8p91iCVFvm9OxCZ45STvwsfuNRnflP/Aydsv8MYj3O8f2cT/d7dnCbuSOfrFsv1BJAyqMlMEKlfkxne/NI6aSjJi1qTuWaerqnUS71ypO3fZfNV+33zsxfKkxU1stIKntFrMq3m8ieWSaX6Tes6fECeOhg13sTIqdHSy93y6Z5/kN81t5sg5aqFC67Bc9X0BdbM+SRfbVOrttGfF1ILZrbr7+5WmUT9iHe3yNuv/VLOX9J/RzqE6B93tag+064JDGZqpEatUXQ4NViK2ubt1xrUvqwX7Jo4HZT0ymifZ4571NqrmM/POU5TG/g7dT2d61a2Qr71hApm6jsK3X+M5+cc5+EfB/ZJ1DXT943UvEbe33iPM8a/M7/xfu9BIp1vCI/+XgAkLWoykdiyV8njJmDqEOkETO3s9dOyuXWP7DUj1KO6dFxe2l4vtRvrJylgqh/OdX9v//DrH009qMX/w6/pvnkvy78896r1YztSrn6I1Y+tpsPEvwQ0/art1Tb2IIsiueu+wBo7p4bQqqFSP/j/uP1lE8A0tb/G/5B+sxbWOAddVGwxgUGHOhUKnMCg9TSrc9vTYq+M8nn2cY/eny/W87OPUwVSFcrf1M3NruOUS8fk/dfs7XKKA6/nWM7P2l+EQT85q38aOJ2Prpm2AqYOkT8OCdSxHmdsf2cuExxs45xvf1e0gBn79QSQOgiZSGxZ+WL9xPYei1xLmRBWyH2r9S+/Cg3RamVUeHD/2Oavq7F+iHWtUKRavZ7ffWDCRoldYNiDL3Q4jV6jFHFQhRl0MabBH/4mXxVswtaKjoj+ec7UOaNPWRPb+a2Qu62+t5Xy0POuwBcQ/v7KDlluYzw/vV3w9XSOM5QOl69KgxUig48/xuOM8e8swHi+9xDOvJajNHFP4HoCSB2ETCS0+Zl2j7T2gavWc8IaTz81F2eU7qe/i14rFMonuYX6Wf/Yh982/757zY94+NcrrP6TYxsh7P+sKP0ox1ZDOdapc2I8vzHO5xhs7OcXfD1HjvNtZyqf50wNqwrS1sCdcGEvxuOM9e/MbTzfeyhnXsvo/TZjv54AUgkhE/BCTFOxOAElcKBMiLCfPfqPffRpZsa4b2P0MOzUcI3yeWOeOie283OCi+564J6/MdzDXTs69vMLrsEzx+kOfZca5MOT6rnoXrknwpRFsR7nxKf8Gd/3HmKMTe2xX08AqYSQiaTgyyowS9ONT771XTMoKFyNXcQf+9HCRJhwNCFjrOEaU22nMsHzC+7HOHERzs8cZ3DoO/+h7p9aJJU10W+z6P1xjmaC3/uEQ65jbH8vAJIbIRMJ7WzvObGiVV6Ee5tnF8hdEebeDDDZk7F/dtnuNxntri5lK4Kmo2mXPmscU6XcXWUVhHAP8vidq8bHXxMWsUZwlB9xp0ZqXIokZ7ZZDKBHeptBHmOq4Rq9Fi3W8+vp6rKec5Ytj3hP9PwqX4TXxn9+znGGNPk2/04+1c9L7wv79xDzccb0d+YS0/c+wmlqH1v3jon/vQBIboRMJDb//c0r5MVl62VNtlVqmV+wXpqW1MhKsx5NdY09fZFWvPoh2eD1nVf89+OulId2/FAqylw1VHoqmy0vy989Hzqno13jJXLXppflERUq/PQUNnoeRGuQR7e0BI0UDtdUHMCpYRttLsqlNfIt13715N7f2lIbEmB6u6yTU8epz81atORX1cojO8xUQkr0Gi6n9rFSvum6DvlVKwI+U4v5/JxwV/RX1hyTAcfqXNNNP5X7gkJ9rOcX+TiPye91k3mkf0DEeJyx/p2FGOP3HmjsTe3e/L0ASHbMk5kgmCczyh1/slepMFmlfuLCGDwvRwYqZGUi3PFHTzwddkSwLdIdf+y7wZiVEOHuEjP6HWby19kBNXSORYd7rsVQodu55jwMpuevbC2Wh1ZLxDvaOJzjCha4vwmen5nHMZLwdwmK5fxGOU7nOPQI63AjwWM6TiXGvzPbeL736O/1C3t+3vy9AEhu1GQi8V1/V9Z+1Ch7e90No71ypLNRalsPyKsDo/fqOtrYau4fLdJ1+O3JuaXkpQb5l40/lrdPdtujix3qR7VFT8MT4Yf//M//Whr0nIHm+Czd3fb0NxvD/QiP3p9t1JpAaZf3t/9YWtSxuvXrAPBcuGB6TN587tXA9+tjVOfVsP1lcxyj13D1HPwH6/qMsM/T3RVgwufX/LL8ozrWT/Uk7i46fOlzC5yL1BHL+Y1ynM2/tP/mIg0Aiuk4lRj/zmzj+d7N+Y0mbJO3N38vAJIbNZkJYrrWZAIAgNRETSYAAAA8R8gEAACA5wiZAAAA8BwhEwAAAJ4jZAIAAMBzhEwAAAB4jpAJAAAAzxEyAQAA4DlCJgAAADxHyAQAAIDnCJkAAADwHCETAAAAniNkAgAAwHOETCShQtm67Fk5VfWsNJUuNGXj5XxGnWzNNkUT4vXnAQCQ3AiZSD7ZC+SBTHvRVzJf1tiLk8AEx2WrZL4pAQAAY0PIRPK5fkbeG7QX2zvPyiF7ETHwlZXLhi0bpGFfnTRsKTel0fmqlsvTO9T79TbWY4M8va5cfOb1SGLdDgCQnAiZSEJXZFfrC7K4+QVZ23HalGE8qrfYQW/n8w/K2qU5pnR0vnUbZOemZVJZZAosOVK5+kHZuWN5xMAY63YAgORFyAQiKpC7TLN83JSN1Pa9si7fFHqvo/Edqd9jHof7Teko1LFtXq0Dab+0HD4g2zbWS61+PPeOtHSr4qJlsjNcbWis2wEAklraosVLhs1yQist9UlHR7tZSz2pfH5r5j0rL+aJHGl7QTZfNYVadqHV1/Hs9Sv2umG/v1f2flQvu67rfpGb5LEIYa+9c4+s7QjcPpDaR0G17CypEJ/5jPbeZnm9812REvd+7NekYL00ud4bVW+jLD7n1KQ6xzly3GvmfU8ez8vz19Lp/W47966cNevh6BrGuqVmRYWypuf2y/5LZnWyVD0sDZvmiJx8R2p/3mYKQznH1qWC4lMHe0ypo1ye3vegVIY55li3AwAkN2oyMekuDPRaz2WZhdazTYWyik3SsGSTNJUGlt+dpZ4Gz8mvneAXMzv4NZQHhkZfXpW8uKROHtf7CWNMATOarIWyW+33RVfA1PR+G5J2EFG53G+F34vSGBIUtTY5aNWI5sjs2XaJLdbtAADJjpCJSXd20A4XvqwC69niHiEernzgqqnxG+l/6X7UdtrBNZo185wa0F450rZnZNuPGuXIoAqA4cLk1QOu/aj36bLBZqn1l7ke/lpMtzx5rLxGVuoaTfc+287bL2dWyZOu0w12tLHVbkJWug6/nTg1e2W5YnWnPPl7OWoV2Nwhur3rmvVcVOxq5o91OwBA0iNkYvJdPWuHNRUm/bV4WfkqaJyXIzorhpSr4KFC5oRkr5LH8/SC3Xy9+epIk/rZ66dlc+se2WtGqHtu8Lw801wvu9z7VOH1GZOLA2t0g1w6Li9tt/sshjYtT6HZOVKsnrq6+ux1q5m7Tna6+45+1i9d6qm4ONde12LdDgCQ9AiZiIOr8qkOdJn5MtcukDV5FSqM9cjbuik9c558x0xgPl+9R7s0GK2f5RiYsCq9x0b6W8aFCrXnD4SdVsnpNpASqu6WSrM4rnAY63YAgKRDyEQcXJHfD+jnCnnIaio2/S4Hrsohqyk9T+4y/SPnZunqx/Py9gQrMp2wOuEaUQTwB8PmD6TJatbvl5YPIw8WcsS6HQAgeREyEReBg3/sqYGsADjQI3pMvV2+UB7SGVMFzwvqCQnENGmP6JH9VrP+fnmp2RSFNI0rsW4HAEh6hEzExdnec1aYtAb5FMyXlWrZahI3d+/x5S+Q+dkFUqbf7B/0M3EBg4pi5Wrmn7Yu9YlVAbn0bqm2CkL5imdaz91drr6ksW4HAEh6hEzEx/WrYg2UVqFvjdWU7TSJm6Z0HeS8GvSjOKFW8iLc21wF2rFPtJ4vd5s+o5MuTpOxj1+bnDipn+dITdjjKpd11oTrF+WEU0NpiXU7AECyI2QiTkYG/zyk+126msQP9erpfVS5GQ3+Xu8EB/1o/vubV8iLy9bLGldInK8nXF9SY9WmRnda3rZa+fPksYpVAZ+hJ5JfUxBllHiMqmtGbr1YvPoh2WBV7SYGPb2SNQp89XoVgF33HC8rV8FYT6iuBE1VpMW6HQAguXHHnwSR6uenOXf+sbjvlpO9SoW+KhM+9PQ/4Udnu80vrZOGkrzod/wJ+Nwgg+flyECFrAy+40+waJ8RcKzBd/yxCgOM5ZjjccefwH1EEeYOQNY9yK2axzC6W2Xb9uN2DXKQWLcDACQvajIRN3aNpe1Ir2sic6cpXfNy0M/1d2XtR42yt9c9dVCvHOlslNrWA/LqWKYUMp9xZDDwve0qpO5tOzpqGB6vhJ2M3Wg/uF+27dHH6L7fub4n+TtRg2Ks2wEAkhc1mQliOtRkAgCA6YOaTAAAAHiOkAkAAADPETIBAADgOUImAAAAPEfIBAAAgOcImQAAAPAcIRMAAACeI2QCAADAc4RMAAAAeI6QCQAAAM8RMgEAAOA5QiYAAAA8R8gEAACA5wiZiJNC2brsWTlVVSdbs01R3DnH8Kw0lS40ZV5JhPMDACBxEDIxfWQvkAcy7UVfyXxZYy8mEBNUl62S+aYEAIBkRcjE9HH9jLw3aC+2d56VQ/YiYuArK5cNWzZIw746adhSbkqj81Utl6d3qPfrbazHBnl6Xbn4zOuRxLodAGBqETIxjVyRXa0vyOLmF2Rtx2lThvGo3mIHvZ3PPyhrl+aY0tH51m2QnZuWSWWRKbDkSOXqB2XnjuURA2Os2wEAph4hE0gYBXKXac4ft7KR2r5X1uWbQu91NL4j9XvM43C/KR2FOrbNq3Ug7ZeWwwdk28Z6qdWP596Rlm5VXLRMdoarDY11OwBAQkhbtHjJsFlOaKWlPunoaDdrqSfVz8/ub7hJHsvslb0f1cuu64WyZt735PG8PH9tVHtvs2w7966cNeshshfK1pIV8oB7m8Hz8vr5A3Louinwc/ZnVoO0d+6RtR1XzFp48wvWy86SCvFFCX4jnxPj+al9NI2yD7/eRll8LnwNrK5hrFtqVlQoa3puv+y/ZFYnS9XD0rBpjsjJd6T2522mMJRzbF0qKD51sMeUOsrl6X0PSmWYY451OwBAYqAmE/GXtVB2q0D2oiuAab68KmmIMOhlfmmdnFpSI48Fb5NZIS8u0aPFC02JN9bMq5OG8jGGv2DjPL+Y9pE0yuV+K/xelMaQoKi1yUGrRjRHZs+2S2yxbgcASBSETMRZnjxWXiMrdY1f2x6rf6R+1Ladt1/OrJInC+xFv4L10lCSpxZ65Uhno9SabZztdP2vr+R7QVMHjfS/dD9qO3vN61Go/emAqPcXeIzN1r5Ezsszpiy0NnSc53f1gP89i5sb5YguG2wOOEf/I0Itpna0sdVuQla6Dr+dODV7Zblidac8+Xs5ahXY3OG7veua9VxU7Grmj3U7AEDCIGQi/gZ1SKuXXVdHAtpZFbaeMfmvLNNdK1koW0sqrKUjbfWyueN0QHOz3m6tFeDy5IE8b2oz52faoUXvL/AY3zX7qpCHgoOw27jOzyOXjstL2+0+i6FNy1Nodo4Uq6eurj573WrmrpOd7r6jn/VLl3oqLs6117VYtwMAJAxCJuKsV/bqPpRmze3CQJhaRmduy8FmefWqXRTi6lmrBtCXvyBu80tGDorjPL/ppupuqTSL4wqHsW4HAJgyhEwktqx8u4k0s0oaquy79YQ+amSl9WZvnB20awJXlq+XNe4m+OyFsrvcrlW9NBjcTI5o/MGw+QNpspr1+6Xlw8iDhRyxbgcAmHqETCCYv2nbHlTkD7NLTJjtbYxcq4pApkl7RI/st5r198tLzaYopGlciXU7AEDCIGQisQ302INt9PQ94QbDuB+tUaY/Gje7aTtwUikz8OhcYL9Qz2Xmy1yzmPQu9YlVAbn0bqm2CkL5imdaz91drr6ksW4HAEgYhEwkNudWkHkrgkaPTyJrdLnI3o9ekLUBQTZ04NHkyJe7x3uucZqMffza5MRJ/TxHasIeV7mssyZcvygnnBpKS6zbAQASBSETCe6K7Oq0R48/tqROdpculPkBAaxQ1pSul6aq9bLGlEyUPbo8T+7yaLT62J2Wt60KVHWuFauC+oOq8yyIfDzVNSO3Xixe/ZBsKLOXE4GeXskaBb56vQrArnuOl5WrYKwnVFeCpirSYt0OAJAYuONPgph+d/wxxS56wnU9H2a4u/E4r0U0eN4a1R3uc92i7cMve5U0LakKmJMxmL7T0HudR13TFE3s/Pyi7ltPjRR+5Ho87vgTuI8owtwByLoHuVXzGEZ3q2zbfjyoa4It1u0AAFOPmkwkhbMd9bL4o0bZ29sbGCoGTT/J1tED5phdPyOvq/1Eo+809Fj5Jtkdbb7MWFx/V9aq8zyizstNh9q9bUfDBkwtYSdjN9oP7pdte/Qxuu93ru9J/k7UoBjrdgCAqUdNZoJI/ZrMZGFqJKVZBddIA4n0fcn1bSNVCBrDPdABAJiOqMkE3Mzk7+09Z6IM8LnCxOoAAIyCkAmEoe+FvrugMOQOQvOzF8rWeU7/0PPyOrWYAACERXN5gqC5PHGsmfes1RQe1RgHGgEAMF1RkwkEOXTuBalta7YG3wTHfnsAzh5vBxoBAJCCqMlMENRkAgCAVEJNJgAAADxHyAQAAIDnCJkAAADwHCETAAAAniNkAgAAwHOETAAAAHiOkAkAAADPETIBAADgOUImAAAAPEfIBAAAgOe4rWSC4LaSiaRcnt73oFSatbC6W2Xb9uMh9zbXfFXLZd13l0llkSmQfmk53CIHD7aFfT8AAKmImkzAQ751G2TnJnfA1HKkcvWDsnPHcvGZEgAAUh01mQmCmswxKlsuTz9hh7iuwwfkqYM95gUvmZrMKLWVYalje+X5ZVJs1Vy+LQfVsVnblqnPe0J9ng6eJ9+R2p+36VIAAFIaNZmIk0LZuuxZOVX1rOwuMEUBnNfrZGu2KQqjumaklrB49UOyocxe9lRZrli7uNI3ruZtfWzF6rlLBcyXnICpXWqTl7a/Iy16eWnl5BwzAAAJhpCJOLkiu1ob5YhaWlkeGiTnl35PHssUae/8d9l13RQmlXK5f6l+viiNYWtX2+Tg4X71nCOzZ9slAACkMkIm4ui0bG47r57z5LGKVTLfLhTJXiU7S/JEBptlW8cVUxje0cZWaem2l3WN4f5L9rKnZufYNZJdItVbNkjDvjrz2CCvbFku1eFqIp3az5O/l6NWgc3dB7O965r1XFScbz0DAJDKCJmIr6sH5Jle9ZxZJTtLC9VCoWytqFJhrFf2nn9XzlpviuLScXlpe73UbqyfpP6YI4pXPyh1S3PMmqbC59JlUvd8nTxdZYoc/mDaZ69b/TrrZKd6vLLOhMrP+kXlVikuzrXXAQBIYYRMxN2hc3azua/ke7J7nt1MfqStPnGayZs/kKaTF6VpzwHZpsKsDrTW47l3/LWolZselmp7Mbyqu/1TIBEqAQDTESETU+C0bP6oWdolT1bm5Yn0Nsrmq+alhNAj+3/+luxvdg3e0awBPAekyQqac+T+4NpMxR8odVC13tcvLR8ymhwAMP0QMjEl5ufNG+mvmFUw0j8z4fXI+616AE9Q30rTFD5CBVWrWX+/vNRsikKa1AEASF2ETMRfwXpp0AN9ehvlmc5eV//MJHapT6yKy6V3R2xG9xXPtJ67uya3LykAAImAkIk4Wyi7yyvU83l55txpOdTx77J3UPfP3BRh/swgejL2HfZob/+AGk/ly4Z15VHuzFMu61bbg4ECw2KbnDipn+dITdjjcra7KCecmk0AAFIYIRNxtWZejaxUz0faDsghq+SK7Dqv+2fq+TPXyxqrLLLJnozdt+4hWWvdAvJh2VCVHxA29T3Jn95h7mne3SoHg8Kinl7JGj2+er0KwK6gqu/442wXNMURAACpittKJohpcVvJgvVyStdi9jbK4nOnTaFtfmmdvwk9+DW36i11UmdNeq71S9Nz+z2fK9O6/7iprQyr+6LUb38rbFiMuu14b1MJAEASy7izsPAnZjmh3X77TPniC3sy61SU6uenJ1xv+m9LZaZuJj/5ngSPt+754gO5nL1SVuXNk4fT2qThiz+aVwJdupIhc+YVSfFf6MnYD8nLvx0wr3jn2pn/lH87+YXcMjNHbivKFLUrW3e/tDQckt17P5ZTpiiY3vbDqxmSU/wNdYyZplTfy7xZdu8+RcAEAEwb1GQmiGlRkwkAAKYN+mQCAADAc4RMAAAAeI6QCQAAAM8RMgEAAOA5QiYAAAA8R8gEAACA5wiZAAAA8BwhEwAAAJ4jZAIAAMBzhEwAAAB4jpAJAAAAzxEyAQAA4DlCJgAAADxHyAQAAIDnCJkAAADwXNqixUuGzXJCKy31SUdHu1lLPal+fsmlXJ7e96BUmrWwultl2/bjEu4b81Utl3XfXSaVRaZA+qXlcIscPNgW9v0AAKQiajIBD/nWbZCdm9wBU8uRytUPys4dy8VnSgAASHXUZCYIajLHqGy5PP2EHeK6Dh+Qpw72mBe8ZGoyo9RWhqWO7ZXnl0mxVXP5thxUx2ZtW6Y+7wn1eTp4nnxHan/epksBAEhp1GQiLtbMe1ZOVT0ruwtMQViFsnWZft96WWNKglXXjNQSFq9+SDaU2cueKssVaxdX+sbVvK2PrVg9d6mA+ZITMLVLbfLS9nekRS8vrZycYwYAIMEQMhEXhzqbrdC1smSVzLeLQmUvkAcy1XPvWTlklySRcrl/qX6+KI1ha1fb5ODhfvWcI7Nn2yUAAKQyQibi4/q78nqves6skicj1GauKakSn/TK3s7TpiTU0cZWaem2l3WN4f5L9rKnZufYNZJdItVbNkjDvjrz2CCvbFku1eFqIp3az5O/l6NWgc3dB7O965r1XFScbz0DAJDKCJmIG39tZt5CuyDAQnkoTz0NnpNfX7dLwrp0XF7aXi+1G+snqT/miOLVD0rd0hyzpqnwuXSZ1D1fJ09XmSKHP5j22etWv8462aker6wzofKzflG5VYqLc+11AABSGCET8XP9jLw3qJ7zVsjWbLvIr2C+rFRP7T1n5KxdMnWaP5Cmkxelac8B2abCrA601uO5d/y1qJWbHpZqezG8qrv9UyARKgEA0xEhE3F0RXZ1nlfPefJAXqFdZCmUrSUV6vm8vN5xxS6aUj2y/+dvyf5m1+AdzRrAc0CarKA5R+4Prs1U/IFSB1Xrff3S8iGjyQEA0w8hE/F19ajsHRTxlVSPjCBPqgE/PfJ+qx7AE9S30jSFj1BB1WrW3y8vNZuikCZ1AABSFyETcXZFft2jRwBVyENmAND8vHmjDvhJeJf6xKq4XHp3xGZ0X/FM67m7a3L7kgIAkAgImYi7sx3H5Ih6tqczKpTv5OeNPuDHoSdj32GP9vYPqPFUvmxYVx7lzjzlsm61PRgoMCy2yYmT+nmO1IQ9Lme7i3LCqdkEACCFETIxBU7Lq529Ipnz5DuldlP5WAf8TPZk7L51D8la6xaQD8uGqvyAsKnvSf70DnNP8+5WORgUFvX0Stbo8dXrVQB2BVV9xx9nu6ApjgAASFXcVjJBTL/bSi6U3VU11ohyPeDnmeYDY+qPWb2lTuqsSc+1fml6br/nc2Va9x83tZVhdV+U+u1vhQ2LUbcd720qAQBIYhl3Fhb+xCwntNtvnylffGFPZp2KUv38Qn0uM7JXyqostdj7v+X/6vncLh7FpSsZMmdekRT/hZ6M/ZC8/NsB84p3rp35T/m3k1/ILTNz5LaiTFG7snX3S0vDIdm992M5ZYqC6W0/vJohOcXfUMeoRzNp+l7mzbJ79ykCJgBg2qAmM0FMv5pM+37mL+b1yt6P6mXXWPpjAgCApEGfTEyN7FXy+Fju8AMAAJISIRNxN79glTQt0fcpFznS+e7U3+EHAAB4jpCJ+MhWwbLqWTmlHg3ldsBs722UzVftlwEAQGohZCI+slzTAQ32ypG2PbL2XBJPvg4AAKJi4E+CmI4DfwAAQOqiJhMAAACeI2QCAADAc4RMAAAAeI6QCQAAAM8RMgEAAOA5QiYAAAA8R8gEAACA5wiZAAAA8ByTsScIJmP3mL6Npbk/eoDBZqlt5X7p3pshG9bnyNqZN6Xpl32yv9cUT5p4789rMR5/Xra88v0sKTarftcGZNuB68L/QQAkEmoygWlHB5wCafhb9VifPRLE77nNLlOPp+8xZUDM+DsDpjtCJlLT9XdlbfMLstj/aJQj5iW4XLsRpvbrpnzWZxaRWHqvy1P/dFVq/Y8vpcW8lND4OwOmJUImAAAAPEfIBBJJ2XJ5ekedNOyrk1fW5ZtCr92Qy9fMolvfTekyi8DE8XcGTHcM/EkQ02vgT6HML6iWnSX54svMM2W90t57TLadOx1xUM78glXyZEmVrMw0BWPYZsRC2V1VIyvHMfAnlv3NL1UBsURk70f1suu6KsheKFtLVsgDeXn+PmntvY0RP6N6S53ULTUr0i9Nz+2X/ZfMqoeq/7JA6tQBdX3UL0/97oZd6B9U8rXU/9OXctQuDTJDfPdkyealt0rxTLukq31AGlvUyVbqz4w8kMV3T7asW5ollWY73Vza1X5ddv/m6ygDViayv9sCtgsn4PwdebfKhspsudeX4R9g03Xta2n8X+qaRBig47svV3YukZFjCfcZ7V+6zjVw4M/7cqus++/Z6tpkWK/KtZvScvJLeemToGMLcas8/be3SeVoA3+c7zbi+8YwECmG6xL73xmAVEBNJuJLha7dyzZJQ3mFK2BqKoTl1UhDVZ1szTZFfoWyddmzaht34NOibTMR3uxPB85TS2rkMVfA1PTyWELuZOpQIUbr7neFmN4b0q2f1WsdVkEwO4jsfCAwuBX7sqTu+7lSEzHM2QNAdj7gDpiaCiu+22Tn3+bKBvefgl+s+9PhRoW+oO3GQofFhu/fJmtdQUornnmr2meBvHLfDFMSWcTPUI9wIXB2pTpW9X5/wNTUcuUDOdLwl7eagqkV63WJ7e8MQKogZCKOVMBUocsKboPnZW/bHtfAnD3yTOd59SOcJ3dl2e92zC/9njxmhb1eOeLe5qNG2Tuoy/PksSXrZY1e9MDE96fOoWS9NJSo5KTO85mPAs+ztvO0eV+oo42t0mL9Aot0HX57UmoxtXb3j77fTfksXPOmUf2XuqZLL92Ulvf6/YNPtv3yS2m5psJHhEDnu0+FkzDb1artmqz9ZchaFWCq9aJLrPvTo5frVBjS2zW5t3tvwDTT6ho0uyygFlNtt3OJvV3LR1/KNvMee9uvrW2Ll9wWIRBrGSowms+4pvbxS9e5/lO/bGv52rzPTYVJday6drb+lyPvrf/IDmeiQviUj8CewHWJ5e8MQOogZCJu5peukJV6wWqyPiC7rl6xym1X5FDHAVmrAtnmq6ZIy14lO3VYU4FPN0Fvdm9z/bTsat1jgl+FPF5aaBVPiEf7W5lXIe2dKlyq8zx0PfA8z+pm9EguHZeXttdL7cZ6eepgjymcLBFG94YbCZyXLTVWdazdnOpuxm3v/VpeOtBvAmMQtd1mE1CCtxO13X7/drdKjbs2LNb9Kb4c+3Na3uuT/e7tPrkuT6lQpPd1f0hwmyEbltq1hnq7l34X2ITf/smXZtsMuffuyLWZlb5brabh2gO6CdkdsNQ1jdCkbDUl/+a6q8n5hhz9XZ9sM0Gzcs5U1mZ6cV3G8XcGIKUQMhEnhfKdfBPezkfpExkQyJSsfLupufeY3ccxxBXZ1XneWvLlL5D51tIEeLW/3kZZ2xF0LolEhYPafwrue3dDhb6rUvubMDVuuaaZtP16+P56kYy6ndrnSXt/xSqgWddei3V/Y1Rkgqhf3q1yr64ZvTYgBz+xi0J88rU1XVDAcQZrV6EruI9nVDflg9+Hf3/77+1aQpk5I/L+JttEr8t4/84ApBRCJuKkQO6ymqB75PfRavKCzM+0R1i3D7irN4MM9Ng1Iuq9c62C2Hm1v6jbJyGndrDL9LEbqzFt54w2npkhpVZB7PvTnCbaygduk2p3E64KTE8/YNfKBfQR1JxQOzNLdpqJwkMft0ml9ebIYjneUbmuS9x5dF0ATE+ETACp5ZMvpd76V4A9KMUfhvTgGl3c/mXkWjkAgGcImYizfLk7hpHgvqwCsxSG08Q92CMXrIKJi/f+kkWxewT0OETdzqktCzPaONb96WZozR7o4zADV8JNmeTUpqoAOjJYJ8IjXvcIj3Jd4iYRrwuApEHIRJyclretfll58ljFqsh9GbMLA14723vO/uHKWxFh2qBC2VpSYS2195wZfWqgUZrUPd/feMVlMvbx8/cP9N0aMgrckpchs8OM9h7ZLjvyNEVmYElX+0j4i3V/Fmt0uZ6z8mrQLRhDB6749X4tH+iBRBGPc7Ko88g1iwHCX5eIRmtSd6YNivC+kRkAgkzZdQGQCgiZiJtDnc32j2VmlTQsWy9bC9yjs/UE7eulackmaZi30JQp19+V151wuqROdru30ROdL9tkphs6L69HHWhzVT71jwpfOBJk1WescYdJz/YXm+qaZVJZZC8Xr35INpTZy1POCRu6CXp9YF9HPen5K05TdLDe69Jofel6mqJcefoe14AbPbm3NQG4XvlaGt0DZmLdn2L351ThLcoo8FDOACRznPfdKr6AUDVDqlUQe+VvQ6damqjKB/Q8k65BM9GuSwhnOiA9Oj/wMwL6o7reV/eX7vepMKvnFLVmAAhn6q4LgOTHHX8SxLS540/2KhUkq0Z+5ELYUwcFjuzWk6M74S6ccNuEsu/GE/ALaettlMXn3HNXxr4/Zx96+qJYRpfH644/MfHfqSWMa19Ly7VbpTLsHXhUkPGHpnDCbaPEur9o2xn6TjUfnBwImOJIs+/cE6WJXm3X9L++DDlWZ7uwdxAKy7kmN9WxZESY8zPCdQkS8Zh1E7d7BLcK5w1m4FMwfdyNM3Mi3kEp1usCYHrLuLOw8CdmOaHdfvtM+eIL65/iKSnVz8/vTxelobNNLqf9udz1Z/ky8xZTroJbe+9v5ImTh+VXfzJFfn+U491H5chXM6Qgq1R8Y9omVM8XH8iRtEL55u1qv6bMmhT+ylk5PvBHU6DFvr+C2++V/3F7llz7slUavnB/5thcupIhc+YVSfFfqB/+w4fk5d8OmFcSwOCf5NftN+WWrBkyb6bTCKL7Of5Rdv9mQM7kfUMeLBQ5f3ZQ/tOqNXYMyX/+fwPy4ZdpkpNzixR/wxSrbbva/yj/94E/yv8OeL8R6/4Gh2Uw78/kXv82of7iG+oz52TKnC8H5LeuORyvXR6UfzP7vE1tr74G2zW133P2fsMd68xZmepY0uW/rnwlv748ZEqjSZeF/y1T5n31lTr/a/LOlzNkQc4MdVz2q3py9v9XhbbDYwht+pg/zFDbF6rtTZkV+s7+H/nPPtex9H2tvoPA/ej31R/ul3+6MCRpEb+/2K8LgOmNmswEMb3uXQ5MFlNDKNHu5T3DuptQyD21AQCeok8mgNRhJg+PPljmhv+e2gCAyUPIBJBy9L209SCj4L6/Pj2oxj/QZbRBNQCAiaC5PEHQXA54o/ovC6ym8KgYqAIAk46aTAAp5ehvrsq29wak5ZqZSNxFjypveq9fth0gYALAZKMmM0FQkwkAAFIJNZkAAADwHCETAAAAniNkAgAAwHOETAAAAHiOkAkAAADPETIBAADgOUImAAAAPEfIBAAAgOcImQAAAPAcIRMAAACeI2QCAADAc4RMAAAAeI6QCQAAAM8RMgEAAOA5QiYAAAA8R8gEAACA5wiZAAAA8BwhEwAAAJ4jZAIAAMBzhEwAAAB4jpAJAAAAzxEyAQAA4DlCJgAAADxHyAQAAIDnCJkAAADwHCETAAAAniNkAgAAwHOETAAAAHiOkAkAAADPETIBAADgOUImAAAAPEfIBAAAgOcImQAAAPAcIRMAAACeI2QCAADAc4RMAAAAeI6QCQAAAM8RMgEAAOA5QiYAAAA8l7Zo8ZJhs5zQSkt90tHRbtZST6qfX/ylSckPMmRW7rBcfuOmdH5uipOCc+wigyduyqljSfGfKCYsX6rX3Ss1y+ZIcZEpkotSv/EtOWrWACCZUJOJuMmvmSHLfxTukSGLVajKvyPNvHOaU9chVwVMLfP+dBU9MB1Ub1kvdavdARMAkhshEwkgTTJz02TuoypsriBoyufD0tdnLw6eGJIeexEpLV9mFdpLLXsOSO3GevOgFhNA8iJkIu763rwhx3/merxxUy6csJuEdc1dyR3W4jQ2LJ2/sK8NTeXTTHerHGzmnxUAUgMhE1Pv82HpOTYkl03tHQAASH4M/EkQ02Hgj+6TOXeuXZPZdsYU+o1hoM4d6j3fTpfcuWmSaYoG+9T7f3VTekLeH/x5aWr/6TLLve2FIfmkcUgGzHqICPvrOz4knWcC/7PJWpEhi+5Pi3BujpFjuvAzdcwBZdZKiLEM/MlakC6zl6vj9H/GsDm34YjnZh+vjFzrcOd64WbUzxi3Ep9847t/L9mLimSGKZI/tMj1t34pfzwR7m/fJ3/+k59K9h9elT+8esxa/0bN9yX7O5X+7W98/Kp8oV67YdZjVyhbl22Sx9TJH2l7QTZfNcV+zuu9svejetl13RR7qHpLndQVtsq27ceFIYAAUgE1mZh6KuBYAVCPplbhKFzA1KFo+aMqjLlCkGb35ZwRvS9nfpqUqyA3N3jbuemy6AfpkmXWR6jAVRN5f7MeyZDyBabAGDivgp16zlVhL/TzDBUG7RHjXvWz1AF1hix6xB0wNXXMc1WI/FHGmLoeRLy26uFVwJxx/w8l78c/ldvdAVO7s1KyN/5U8mp8psClZLnceqcKkt2darlW8l5V27sCpjZj0ZNye7htx+2K7GptlCNqaWV5nWzNtksd80u/ZwXQ9s5/n5SA6VeUI6VmEQCSXcadhYU/McsJ7fbbZ8oXX1wza6kn1c9Py5pnh6HMe9Jl9rddj8WqXL1++b0haQtXa7cgQyof0CFyWPpUQPukYUgu/nZIPlOPvmtpcts9KhzNTpO0C8PypT8ApMntS9Pltkz9erpkZg7L5TeH5EzTyHZ3qu1EvX7LtSHpdddcqf0tuD/NqrW8dFAd09v2Np/9dli+ykiTXLWvTLXtV2rdH8LUfv9Mnd9t6kRuBBzHiPyqDHX+w/L5u0MBr3950vn8kUef2s+daj83Lg/LHzrMG4PocHiPPgd9XdS5nTLn9pnaf1qJOffFQcdp3FKWbn9+dpr4FqnPUOd6Iehc+1TZn7wIVCpgFmystP5Fq2se+3/y/8h/Hf6lXD/cIl/fMlOy5hZL+twFkvbxb+T/fGlvYpn/HbltSbEM/cUCyXr4mzLjDy3yxe5/lC/+9Z+tbW+W/nf5hgqh6QNtcv3DCBdpXD6Xt74qlCfzSmTp7TPkSPdF+x8D2avknysqZOZgszxx7vSkDcQqW36v3Ft0TT5ovCCXTBkAJDNqMpEYrBrCdClfEFwjmSYly+2yvjdvWiHUHZgGztyUU2/qYKrCX0XwtoYOUD+7GdDErbe7cMFezswL2k699vEbN+TUL3QzvDv06r6jru0CagmHpfO4fRyzvh3mOO7QTfXqWR1LrxdzdqrPu0cFYb1f3eTd5m6+V8fcqY7d7uOqjidKLa9uHtdN8sfDnOuAF8cpK+R2FTC1r/b9tfQGNG23y43Gl6X3191quUhurQyskZxRVGw/31kk8usfyx9+8rJ81ek0JLfLV7/6Dw+ayYNcPSDP9KrnzCrZWaqHexfK1ooq8Umv7D3/rpy13uS1fPGte1hqlqrF7n7xIi4DQCIgZCLuQkaXqwD48ZtDMqiD4iNB0xg5c0b2Dclnkfo6nhkSnad07WJoU7Xps2nW3AZ63aEqkD9g6ab8BSr81thzeep5PXW/Uh3eMoMnsDTHIXND57bMUgFYNz/r/pyeNEHnm6btCN0LRkJvpOtiXJjcyd5n1NTIN9TzDRUSvzhhlwW70fKBFRZnFJXYBcaMInvCyK/2/Vh6GyP3UrSa0z106JzdbO4r+Z7snmc3kx9pm4R+mGXL5ZV9ddKwb73s1PNjdl+UptfojwkgdRAykQCGZUAFtFNv6KCpQpF7AnInTOWmy6KQSdydR4bV3O4lPZim/Afqsx/NkLm6z6Pur5gbuUbQNiyfWVMxqWAc0GczTfKcZu2Ig4LGJyvPfh7UtW6R9Nj9RHUtcaSQGXV7D9hBsVu+bhlvdPLJjDv1c4t8HXZQkPrsynut/pk3ur2OZadl80fNKuzlyco8daF7G8MMBPJel3pcthcBICUQMpE4XJOQBzZFx9mCjJHBNH26H+hNufCGbkK/adW8Os3l4YQdAOT5gJ9k4QTFLrkRrbKxeJYJi+43lUiG3vYPlyM2iTsB9qZOZx6bnzdPHb2RVSDzzaKnLh2Xp6wJ1w9I/eF+KS6aI3VPLB/ZLwAkOUImEptTG3fBDnhRH7/woik6TcofMX0d37T7Kup+oLq/4kBAn8UIPh+SyzqE5qZJngnK+eWmFlMFUK9lmhrNsJxaYBWUPWminxQ++fOH7T6bATWS999nNbNHDpljDLCxKFgvDSV2DeYznb3qIjv9MydLjxw9uF/qT6pFRpcDSCGETCQOp/+lMuj0M3RqN+fG+U5AeoBO0FyYNhPcouhpM03m1kAk9ezlgB/DqTGNfF1GBkwNfjJVIbNdbvxBP1fKrfdbBSFm1Py9ZFs1lv8h1119Np1BP1+16vkxwxm9pjM2C2V3eYV6Pi/PnDsthzr+XfaqC+0r2SS7C+x3AADGhpCJBJAmWQsyZPGj6VaAC2xWdo3afjRDyleo9waEqjTJX6G2/VFGyGCbCclNl3v0vsyq/xj1xOnWwJ8ozth3L9IDbvSgIavV3asBPw6nxtS5Lu5R+Xpidf8E78NyeRIH9ozmq9YW6/kbG1+W2+93NQSXrJA/f/JlyfuO3eR9/Z8bAsLiqE3hpqbzxkfHPQ2Za+bVyEr1fKTtgByySq7IrvO6f6aeP3O9rLHKAABjQchE3OU+EjpwZ9EjTtPukHwSHIr0lELOgJr71XsfDdx27v1qWx3qPKnpdAbvqM/T+wo5xmH/fdYjG5beT9R7VFCda5revRrw49bTODJNkR6V778memJ1J2C+EX5kfdyceFm++FgvFKmg+VO589V/tR8/ftK6848VMH/6Q/ljQJP36E3hTk2np4N+CtbLi7r7QfBAn+vvyjbdbC4V8uK8hXaZ5/Jllm6RZwojACmEkImEYN0e0uoDGb7Gb+CYek0FpssXTDOxwwzM+fgXEW5FGQO9r4/fVPsxg5As/uNToW0MI7IHjpnpjJTJG/Cj58O8YU3/5AyYsqljv6DOQc8N6mETfay+evWvpXdfi2k6N/7QLV/9+lXpfTI4YGpTMOgne5U0uZrJg53tqLfnz8yrkaZJ7Z8JAKmDe5cniOlw73IAkeTLhh3rZa1w73IAqYOaTABIFEXLZF2Vp72LAWDKEDIBYMr1yPut/dZS5ab10mDdCUg/HpZqqxQAkg8hEwASQPvB/bLt8EXp0rdyB4AUQJ/MBEGfTAAAkEqoyQQAAIDnCJkAAADwHCETcaG7AwAAgOmDkAkAAADPETIBAADgOUImAAAAPEfIBAAAgOcImQAAAPAcIRMAAACe444/CYLzQ3ykSckPMmRW7rBcfuOmdH5uihGGc61EBk/clFPHkuJ/leOQLOeXL9Xr7pWaZXOkuMgUyUWp3/iWHDVrABITNZmAJ9Kk/EczZLl6LF6RZsoCZa3IiPo6orgjXRaPcn09d0ea5KoApmXen66iTqLRIVFdkx+kS5YpGZeEPz9b9Zb1UrfaHTABJAtCJuCxRP7BTlZZFWmSaZYz70mLLVSN1+fD0tdnLw6eGJIeezF1JMX55cusQnupZc8Bqd1Ybx7UYgLJgJAJeC5NZlFb6aE0yVPBUvqG5PKJYZFctX6HeWlSDUvnL27I8Z/dSMGmci2Jzq+7VQ42p1zMB1IeIRPw0oVh0ZVD1GZ6yDTrDn6iQtH5YRlUoTO3ghCvZZrmbgBIRAz8SRCcX7LTfTIzJPfCTfm4N10W3Z8WMphC98kMKdd9DR9Nl8y+Ifn4F0MyYJe6hB+ok18zQ+bOHZYLPxuSzJp0mTVXhy4VcN+8KW1n1DYhZdZmSuDn9ar12d9NVyHOhLY+9f7jQ+r9Uf63oEJfybfVNurznSbsQbXd5V/dlJ4IA4nsc5eRcwj3GerafdI4HHoNFmTI8kfS1HncsM7Nus6jXS9xXk9T18q+FiP7GVL7Cd7WuS5mNUikgTGxfw8uEa6n/h46g78HdS0WL1fvG0u4VNfzuLqettjOzy1rQbrMXq7/VkyBOif7Wob5zmL+HkJVb6mTusJW2bb9uDB0EEgu1GQCXtJh7dhQ3GozZ+kfcivEaGmSq0JASU1Q2SMZYY8j89sq+D2qApsTMDW1rN+/vMZV5mINXlLbuMOClqm2m/vo2AblRPwM9QgXOPLL9Weq0GUFNPV8QT2p/UVtMlevZ6nwVq6uz9zg/cxV/wiIdbBMBLF9DzqERr6es9T7yxeYApf4117qwDhDFj3iDpiaOua56m9Ihf6SSN+FV99DUY6UmkUAySPjzsLCn5jlhHb77TPliy+umbXUw/klOxV6vp0umYPD8oeTw/JlRprcOVv9qGao9Q77HbeUpVtlNy6PlEl2mhQuTpNbzHZ/MsUj0uT2pelym/p1/q9T6nOv26VZ8/QPvtou066RPPP2sKSpsttU2W2mltJflqmCzrUh6b2qt3Q+Tx2beq+uTbr0q5vS9vaQfPbbYflKHXeuOkbJVT/+/m2MBRlS+YAJfCeG5JOGIbn4W72dCtXX1H7vUZ+ptk27MHKcDv+5q/P1LVKf0TcsFw4Omf3a++5TZX8K2k4fr65pzVTH2XbOLhlIV2VqX7d85bqOfiPnl7tYbaevz5tDcqZp5Djv1P071eu3BJ3flyedYxl59JnvMeA7c4n9e1DU9Vyga7bVeV8KuhbO96AHOX2l1v3h++qw6/iGJUv/zela3f950/9d+B/mejliOT9N/6PgHn3NrNrYITllruVn6ntOK7HP6zb1NxxwnBP4HoKVLb9X7i26Jh80XpBLpgxAcqAmE5gEA3GqzdSjgu0m9GHp/cRu7nSXDZrRw+FYTaSNQ64m7mHpOXZTPtaDa5RcqwbRkSYly+11q9n3WGAT6cAZ9Vlv6u1UqIjSX1I3Cev9Hv+Fblp3N8+qzwvX1L5AhTj11Nfmeu8Zc21VSIlaC6aD7M9uBjQ56+O8oGtClcy8yMc5XjF9D+pYPn7jhpwKcy309+A/zrgMcorgjnS5RwVhfUw6MAd0o1DH3KmO/bJ1blEGu8X8PeSLb93DUrNULXb3S4QMDCCBETKBSTEsn1lhbXJHmg/2usOJzV02EOZ127D0nQ//2oA1uEbJdYW4O1R4tNLekHwWrl+hNpbwd2H0vn9ugU3lDrU+apO5CkW6j6hZc4t8TWIX6/fgD9bq+uarQF1ekyGLf5BhzQc6d65+IU0yp3IEWb7av36+4ATmYCpoHrfPLfz3HsP3ULZcXtlXJw371stOPT9m90Vpeo3+mEAyImQCkyRetZmTxh0ynbCRmy6LzKTooY8Mq9YxmsFeszAmKtiaoDU3aF9OAEv2UeZ6ME25nlD90QyZq/s86n6L6roniqw8+znq99YT5h8lHupSj8v2IoAkQ8gEJk1gbebAuAIWnKbyaOI2MftkWJAxMpimb1j6TtyUC2/oJvSb1tyVTnPytHPpuDxlTbh+QOoP90tx0Rype2K5+MzLAJIHIROYRP7azGQKQ06tpQo+/n6XTm2VnhZHBaCoj7BTC42f01R++Y0w+/iZ6QsYtck8kaVJ+SPm/N60+6jqfq66b+ZAQP/MMZikGkS3TFOjGVa4vxdP9MjRg/ul/qRaZHQ5kJQImcCkMrWZuekyu9wUualAEa2pMWtFesS5DSdGBYOwbfgjA3z05Of+0KCO07oF4dz0yNPVeMo0lavg0huhL6A9wCbJm8z1+YWdk9QEtzGarMFB/v65Eb/3CH8vAKAQMoFJ5tRm6v524dgjj9Nkbo0raOoJumvsydsnS+4j9ryWAfvU8z1aoXZYLgcM0HEGeKTJrEczpFxvFxA60iR/RYYs/lH4OTnHzTSVRwsuTgBK6iZz9Y+Pe9zfgbqOWXrCdWveTVMUkRkApb+T76ZLvvv7sAYSefC38/mQXHb2ob9392dG/XsBAEImEAdO38xwRkbnijWxtRncYibo1tP9TE7fPBXQVLjNvD9on05geCPMiGA95Y7pY5qrt3vUbGc9MmSuCsSZ+jM9qFWzm8r1gJMowcVVC5x8TeYjfxMB34G6jose0bWYw3Ih4t/MiJ7fDplrkG5Nhu//PsxAIi8Cf0/jyDRF1kT9rn1E/XvxRL7MKlRPTGEEJCVCJhAHTm1mWDq8vWmHPr8+FTL0HIp6PspoQStW6vM/+cWNkP3qydn14JPw09Xo87gpx9Xrly+YgOdQn6cHrnz8i8jbjp1pKlfhJXDqomAjNXnJ2GSur2W4793po9kzloFinw/JKfV96Ins3azbfL455FHw0/Nh6r8V9Tcc8Eesjl3fRlXPgTnh7xxAKuLe5QmC8wOAYPmyYcd6WSvcuxxIRtRkAgASW9EyWVeVlLPNAtMaIRMAkKB65P3WfmupctN6abDuBKQfD0u1VQogkREyAQAJq/3gftl2+KJ0dZsCAEmDPpkJgvMDAACphJpMAAAAeI6QCQAAAM8RMgEP6O4AAABgBCETAAAAniNkAgAAwHOETAAAAHiOkAkAAADPETIBAADgOUImAAAAPEfIBOCBQtm67Fk5VVUnW7NN0bTlXItnpal0oSkDgOmHkAkAAUxIXLZK5puSccleIA9k2ou+kvmyxl4EgGmHkAkAXrp+Rt4btBfbO8/KIXtxWvOVlcuGLRukYV+dNGwpN6XR+aqWy9M71Pv1NtZjgzy9rlxGu+1BvLcDEBkhEwA8dUV2tb4gi5tfkLUdp03Z9FS9xQ5sO59/UNYuzTGlo/Ot2yA7Ny2TyiJTYMmRytUPys4dyyMGv3hvByA6QiYABCiQu0xzd8oqG6m1e2Vdvin0XkfjO1K/xzwO95vSUahj27xaB9J+aTl8QLZtrJda/XjuHWnpVsVFy2RnuNrQeG8HYFRpixYvGTbLCU3fG7qjo92spR7OL7ml+vmNKJT5BdWys6RCfCaItfc2y+ud74qUPCsv5vXK3o/qZdd1+zXJXiVNS6rEN9gsta3vyllTPEL3f9wkj2UGbWfML1VBqERGXsteKFtLVsgDeXn+2qX23kbZdu506GeHe+/geXmv86jsunrFlBgF66XJdU5Rqf0tVvuzOcdvVoO0d+6RtR1B+woyv2CVPFlSJSv9n9GrzulY+HNy9ifO9SyUNfO+J48HXI9mtW24az1C1zDWLTUrKlw1Pbdf9l8yq5Ol6mFp2DRH5OQ7UvvzNlMYyjm2LhX4njrYY0od5fL0vgelMswxx3s7AKOjJhPAGNkBp6E8MIz58qrkxSV18niWKZgkOnCeWlIjj7kClaaXAwOVOs55Ed6bWSGPlW+S3QWmwGVMAdNT+no+q66nO2Bq6pjzaqQh2kj9zHyZq0L0bvV9vBh8jur7aIh10NKUK5f7rfB7URpDAp/WJgetGtEcmT3bLrHFezsAY0HIBDAma+Y5NXa9cqRtj9XnUD9qP2qUI4Mq6ExaSMuTu0rWS0NJnsjgeXnmo5F9L27eI7WdQf0eC6qtcKlrLYPf+0xnr/WWleXrA0d9Xz3gep86H12ma1/9Za6HvxZTG+l/6X7Umv1EM7/0e2Gv52J1PfdaA4fy5LElQcfpV6GCfY0Kp72y1/1dtJ23X86skifDBGnH0cZWuylY6Tr8duLU0JXlitUt8uTv5ahVYHOH6Paua9ZzUbGrmT/e2wEYE0ImgNFlr5LHVcbTgUg3XW92NTefvX5aNrfuMcFocqzMq7Canhe3HpBD193Nz1fU/s2iQwXG2o9ekLVh3nuoo16esfJfvtw9lfN5quu5U4fmMNdT1PXc5b+eFfJ4aaFVHEKH6Ob6gKb/s+rc7fNT+SkzwnbapePy0na772FoE/EUmp0jxeqpq6vPXreaq+tkp7vv6Gf90qWeiotz7XUt3tsBGBNCJoDRZeXbtTu9x0L6TcZFb+OofRvd/MEzu1DWFKyS3fPqpGlZnTVB+otWWM6Tuya5eT+qUa/nFdnVaddK+vIXhGn6VuH0vArRZs3twsDotahJo+puqTSL4wp58d4OQFiETACjmp9p1+q0D1y1nuNtvPvVg2l26wnVl2ySF3WfR91vMdNKlwlhTNdzoEesoWS6/6VVMH34A17zB9JkNev3S8uHkQcLOeK9HYDoCJkAUkvB+pHBNIPn5Uhno9U3s9b0z3Sak5GATNP0iB7ZbzXr75eXmk1RSBO3Eu/tAIwJIRPAmPmyoowmSQgLZXd5hXo2A2JaD8jmjtNW38yzAf0zxyAONYhRr6fTpD7YIxesgmngUp9YFYlL75ZqqyCUr3im9dzd5epLGu/tAIwJIRPAqM72nrObbvMi3Is7O8IE5tevijVwOUJgGxlh7bHBc/Lr4LkwLYVyt1ka3eQNDhq5nisiTFNUKFtLdFgWae85E3XOy5jEaTL28WuTEyf18xypCXtc5bLOmjj9opxwahot8d4OwFgQMgGMzn8/7gp5cdl6WeMKRvP1ROZ6Oh2zHuiqfOpsN2/hyACWbHsuS2taosmQWSU7S137U6HNOk49kfmouzwtb1tN6nnyWMWqgHO1BxJFGbU9VtffldedfSypk93uz9STyPsneD8vr49jwNNYVdeM3EKxePVDsqHMXk4EenolazT36vUqALvuHV5WroKxnhhdCZpySIv3dgBGxx1/EgTnl9ymxR1/nLv3mNUAuu/jQIWsDL7jj6bC3SmrCTuUnpbo9Sw9oXiY7RT7jj95Y7pzjsPZJiw97U+PyIslFXKk7QXZHGncTbRzVcHvmebwI7sdYztue3L7yDW54a6Js03466WNZd/xuONP4D6iCHMHIOte4lYNYhjdrbJt+3G7JjhIvLcDEB01mQDG5vq7slZPFN7rHjnTaw2sqW09IK9GmjpHz1vZdl7a3fNoWhOlv2CFIK+n3DnbUR92f04fzUPu8kjMuR4ZDDw2PcH73rajUQPm2NkTude2Nav9mCKLvq2kuqZ6Dsyw0xtNXMJOxm60H9wv2/boY3Tf71zfW/ydqIEv3tsBiI6azATB+SW3aVGTCQDAOFCTCQAAAM8RMgEAAOA5QiYAAAA8R8gEAACA5wiZAAAA8BwhEwAAAJ4jZAIAAMBzhEzAA8yRCQBAIEImAAAAPEfIBAAAgOcImQAAAPAcIRMAAACeI2QCAADAc4RMwCPVW+qkYZ/z2CCv7HhYqsvMiwAATDOETGBS5Ehx0Rype14FTVMCAMB0QsgEPHL05/VSu9E8nntHmrp16UyZRW0mAGAaImQCk+FSm7zf2m9WAACYfgiZwCRp77pmlgAAmH4ImcAk8RXPNEsAAEw/hExgUl2Ty5fMIgAA0wghEwAAAJ4jZAKTao7U7VjOfJkAgGmHkAlMkvaDb0v9yX7pKlomdc/bk7S/si7fvAoAQGojZAKTrNg8AwAwnRAygclSda/ULc0R6b4o9c8dsCZpf+pgj3kRAIDURsgEJok9hVG/NL32lhy9RLgEAEwvhExgUjGFEQBgeiJkApOKe5cDAKYnQiYAAAA8R8gEJgn3LgcATGeETGCScO9yAMB0RsgEJkNZuaxbnWNWAACYfgiZgEeqt9h39bEezz8olbqw+6K8z+hyAMA0RMgEJkW/dJ1slfrXjku7KQEAYDpJW7R4ybBZTmilpT7p6Ejdn2vODwAApBJqMgEAAOA5QiYAAAA8R8gEAACA5wiZiAv6YwIAML0QMgEAAOA5QiYAAAA8R8gEAACA5wiZAAAA8BwhEwAAAJ7jjj8JYjrcEUff27tuqVnRt13sviaNr70lR7m3NwAAKYeaTEyRHCkumiN1zz8s1aYEAACkDkIm4uboz+uldqN5PPeONHXr0pkyq8x6GQAApBBCJqbGpTZ5v7XfrAAAgFRDyMSUae+6ZpYAAECqIWRiyviKZ5olAACQagiZmGLX5DKjywEASDmETAAAAHiOkIkpNkfqdiyXakaYAwCQUjLuLCz8iVlOaLffPlO++CJ1B4qk+vmFc+3MFfm8rFhm3XOXrHrgXvkfNffKt2+5KL8+M2DeAQAAkhU1mZhyxeYZAACkDkImpk7VvVK3NEek+6LUP3fAmqT9qYM95kUAAJDMCJmYMvYURv3SZN2/nHAJAEAqIWRiijGFEQAAqYiQiSnGvcsBAEhFhEwAAAB4jpCJKcO9ywEASF2ETEwZ7l0OAEDqImRiapSVy7rVOWYFAACkGkIm4qZ6S5007DOP5x+USl3YfVHeZ3Q5AAAph5CJKdIvXSdbpf6149JuSgAAQOpIW7R4ybBZTmilpT7p6EjdOJLq5wcAAKYXajIBAADgOUImAAAAPEfIBAAAgOcImQmC/pgAACCVEDIBAADgOUImAAAAPEfIBAAAgOcImQAAAPAcIRMAAACeI2QCAADAc4RMAAAAeI6QCQAAAM8RMgEAAOA5QiYAAAA8R8gEAACA5wiZAAAA8BwhEwAAAJ4jZAIAAMBzhEwAAAB4jpAJAAAAzxEyAQAA4DlCJgAAADxHyAQAAIDnCJkAAADwHCETAAAAniNkAgAAwHOETAAAAHiOkAkAAADPETIBAADgOUImAAAAPEfIBAAAgOcImQAAAPAcIRMAAACeI2QCAADAc4RMAAAAeI6QCQAAAM8RMgEAAOA5QiYAAAA8R8gEAACA5wiZAAAA8FzaosVLhs1yQist9UlHR7tZS03VW+qkbqlZkX7p6r4mja+9JUcvmSIAAIAkQU1mwsqR4qI5Uvf8w1JtSgAAAJIFNZmJqqxcNjzxoKwt6pem5/bLfmozAQBAEqEmM1FdapP3W/vNCgAAQHIhZCaw9q5rZgkAACC5EDITmK94plkCAABILoTMhHdNLtMfEwAAJBlCJgAAADxHyEx4c6Rux3KpLjOrAAAASYApjBJavlRveUhqluZIsSnpOnxAnjrYY9YAAAASEzWZScAJmAAAAMmCmsxEVvWwNGyaI9J9Uepf+0COXqIGEwAAJAdqMhOYPYVRvzRZ9y8nYAIAgORByEx4TGEEAACSDyEz4c2UWYwsBwAASYaQCQAAAM8RMhMY9y4HAADJipCZwLh3OQAASFaEzERVVi7rVueYFQAAgOTCPJkJpHpLndQtNSuO7lbZtv24TLd7HQEAgORGTWbC6peuk61S/xoBEwAAJB9qMgEAAOA5ajIBAADgOUImAAAAPEfIBAAAgOcImQAAAPAcIRMAAACeI2QCAADAc4RMAAAAeI6QCQAAAM8RMgEAAOA5QiYAAAA8R8gEAACA5wiZAAAA8BwhEwAAAJ4jZAIAAMBzhEwAAAB4jpAJAAAAzxEyAQAA4DlCJgAAADxHyAQAAIDnCJkAAADwHCETAAAAniNkAgAAwHOETAAAAHiOkAkAAADPETIBAADgMZH/H0kcpSl2tZitAAAAAElFTkSuQmCC;" vertex="1" parent="1">
          <mxGeometry x="1330" y="600" width="665" height="507" as="geometry" />
        </mxCell>
      </root>
    </mxGraphModel>
  </diagram>
</mxfile>
